<?xml version="1.0" encoding="UTF-8"?>
<svg id="_레이어_1" data-name="레이어_1" xmlns="http://www.w3.org/2000/svg" version="1.1" viewBox="0 0 390.99 55.07">
  <!-- Generator: Adobe Illustrator 29.8.3, SVG Export Plug-In . SVG Version: 2.1.1 Build 3)  -->
  <defs>
    <style>
      .st0 {
        isolation: isolate;
      }

      .st1 {
        fill: #202121;
      }
    </style>
  </defs>
  <g class="st0">
    <g class="st0">
      <path class="st1" d="M4,27.16c0-3.37.56-6.47,1.68-9.31,1.12-2.84,2.71-5.28,4.75-7.3,2.04-2.03,4.5-3.61,7.36-4.75,2.86-1.14,6.01-1.71,9.45-1.71,2.93,0,5.77.41,8.53,1.22,2.75.81,5.36,2.09,7.82,3.83l-2.17,8.15-.54-.11c-.47-1.77-1.07-3.43-1.79-4.97-.72-1.54-1.61-2.87-2.66-3.99-1.05-1.12-2.28-2-3.69-2.63-1.41-.63-3.04-.95-4.89-.95-2.43,0-4.55.43-6.38,1.3-1.83.87-3.41,2.06-4.75,3.58-.58,1.92-.58,3.73,0,5.43.58,1.7,1.5,3.21,2.77,4.53,1.27,1.32,2.8,2.4,4.59,3.23,1.79.83,3.63,1.36,5.51,1.58,1.92.18,3.86.32,5.84.41,1.97.09,3.88.14,5.73.14,1.74,0,3.36-.04,4.86-.11,1.5-.07,2.81-.14,3.94-.22v.6c-1.74,0-2.89.43-3.45,1.3-.56.87-.86,2.25-.9,4.13v13.85c-1.48.25-2.77.59-3.86,1-1.09.42-2.08.85-2.99,1.3-.91.45-1.76.92-2.55,1.38-.8.47-1.64.9-2.53,1.28-.89.38-1.86.69-2.91.92s-2.28.35-3.69.35c-3.22,0-6.23-.55-9.01-1.66-2.79-1.1-5.23-2.68-7.33-4.72-2.1-2.04-3.75-4.52-4.94-7.41-1.19-2.9-1.79-6.12-1.79-9.67ZM15.84,10.54c-1.63,2.21-2.82,4.81-3.58,7.79-.76,2.99-1.14,6.13-1.14,9.42,0,2.82.36,5.58,1.09,8.25.72,2.68,1.79,5.06,3.2,7.14,1.41,2.08,3.16,3.75,5.24,5s4.5,1.87,7.25,1.87c1.56,0,3-.29,4.32-.87,1.32-.58,2.45-1.37,3.39-2.36.94-1,1.68-2.15,2.23-3.47s.81-2.71.81-4.15v-8.42c0-.98-.21-1.78-.62-2.42-.42-.63-1.04-1.18-1.87-1.63-.83-.45-1.9-.83-3.2-1.14-1.3-.31-2.88-.61-4.72-.9-1.12-.18-2.21-.48-3.26-.9-1.05-.42-2.05-.93-2.99-1.55-2.17-1.34-3.84-3.02-5-5.05-1.16-2.03-1.54-4.24-1.14-6.62Z"/>
      <path class="st1" d="M72.09,50.56c-3,0-5.63-.52-7.87-1.58-2.25-1.05-4.14-2.44-5.67-4.18-1.54-1.74-2.7-3.71-3.47-5.92-.78-2.21-1.18-4.47-1.2-6.79s.34-4.58,1.09-6.79c.74-2.21,1.88-4.18,3.42-5.92,1.54-1.74,3.46-3.13,5.76-4.18s5-1.58,8.12-1.58c2.1,0,4.04.27,5.84.81,1.79.54,3.41,1.3,4.86,2.28,1.45.98,2.7,2.14,3.75,3.5s1.9,2.85,2.55,4.48c-.43.07-1.1.19-2.01.35s-1.96.35-3.18.57c-1.21.22-2.56.45-4.05.71s-3.02.52-4.62.81c2.39.04,4.44.39,6.16,1.06,1.72.67,3.13,1.52,4.24,2.55,1.1,1.03,1.9,2.21,2.39,3.53.49,1.32.69,2.66.6,4.02-.09,1.36-.45,2.7-1.09,4.02-.63,1.32-1.53,2.49-2.69,3.5-1.63,1.45-3.51,2.6-5.65,3.45-2.14.85-4.56,1.28-7.28,1.28ZM61.12,29.71c-.14,2.21-.07,4.5.22,6.87.29,2.37.87,4.54,1.74,6.52.87,1.97,2.04,3.6,3.53,4.89,1.48,1.29,3.37,1.95,5.65,1.98,2.61-.04,4.93-.46,6.98-1.28,2.04-.81,3.85-1.91,5.4-3.29,1.77-1.59,2.9-3.46,3.37-5.59.47-2.14.24-4.16-.71-6.08-.58-1.16-1.3-2.12-2.17-2.88-.87-.76-1.84-1.37-2.91-1.82-1.07-.45-2.22-.77-3.45-.95-1.23-.18-2.48-.27-3.75-.27s-2.6.07-3.88.22c-1.29.15-2.53.32-3.75.52s-2.35.41-3.42.62-2.02.4-2.85.54ZM61.12,29.11c1.27-.22,2.62-.45,4.05-.71,1.43-.25,2.91-.52,4.42-.81,2.35-.4,4.68-.8,6.98-1.22,2.3-.42,4.39-.79,6.27-1.11-.29-1.41-.7-2.78-1.22-4.1-.53-1.32-1.21-2.5-2.06-3.53-.85-1.03-1.88-1.85-3.1-2.47-1.21-.62-2.63-.92-4.26-.92-2.03,0-3.72.46-5.08,1.38-1.36.92-2.46,2.11-3.31,3.56-.85,1.45-1.49,3.05-1.9,4.81-.42,1.76-.68,3.47-.79,5.13Z"/>
      <path class="st1" d="M93.16,49.96c1.77,0,2.92-.46,3.45-1.38.52-.92.81-2.36.84-4.32v-22.92c0-1.12,0-2.12-.03-2.99s-.13-1.6-.33-2.2c-.2-.6-.54-1.06-1-1.38-.47-.33-1.16-.52-2.06-.6v-.54c.76-.07,1.6-.18,2.53-.33.92-.14,1.85-.33,2.77-.54.92-.22,1.84-.46,2.74-.73s1.72-.57,2.44-.9v15.69c.33-1.74.79-3.39,1.41-4.97.62-1.57,1.39-2.96,2.33-4.15.94-1.2,2.07-2.16,3.39-2.91,1.32-.74,2.85-1.13,4.59-1.17,2.79-.11,5.29.25,7.49,1.09,2.21.83,4.08,2.06,5.62,3.67,1.54,1.61,2.72,3.57,3.56,5.86.83,2.3,1.28,4.88,1.36,7.74v12.33c.04,1.92.32,3.34.84,4.26.52.92,1.67,1.38,3.45,1.38v.54c-1.27-.07-2.53-.13-3.77-.16-1.25-.04-2.45-.05-3.61-.05s-2.24,0-3.23.03c-1,.02-1.86.05-2.58.08-.87.04-1.65.07-2.33.11v-.54c.98,0,1.75-.11,2.31-.33.56-.22.99-.55,1.28-1,.29-.45.48-1.04.57-1.76.09-.72.14-1.58.14-2.55v-11.73c0-2.42-.16-4.76-.49-7-.33-2.24-.91-4.23-1.74-5.95-.83-1.72-1.96-3.07-3.39-4.05-1.43-.98-3.27-1.45-5.51-1.41-1.99.07-3.71.66-5.16,1.77-1.45,1.1-2.64,2.52-3.58,4.26-.94,1.74-1.66,3.67-2.14,5.81-.49,2.14-.75,4.25-.79,6.35v12.22c.04,1.85.33,3.2.9,4.07.56.87,1.69,1.3,3.39,1.3v.54c-1.81-.07-3.28-.14-4.4-.19-1.12-.05-2.17-.08-3.15-.08-1.05,0-2.14.03-3.26.08-1.12.05-2.62.12-4.51.19h-.33v-.54Z"/>
      <path class="st1" d="M152.3,4.62h.59v9.01h3.69v.54h-3.69v29.4c0,1.21.11,2.29.33,3.23.22.94.58,1.69,1.09,2.25.51.56,1.27.84,2.28.84v.6c-1.88,0-3.49-.14-4.82-.43-1.33-.29-2.43-.77-3.29-1.44-.86-.67-1.5-1.58-1.91-2.74-.41-1.16-.62-2.61-.62-4.34v-20.2c0-1.09,0-2.05-.03-2.91-.02-.85-.13-1.57-.33-2.17-.2-.6-.54-1.08-1.03-1.44-.49-.36-1.19-.58-2.09-.65v-.54c6.23,0,9.51-3,9.83-9.01Z"/>
      <path class="st1" d="M168.37,50.29c-1.3,0-2.61.02-3.91.05-1.3.04-2.61.09-3.91.16v-.54c1.77,0,2.92-.46,3.45-1.38.52-.92.8-2.36.84-4.32V11.9c0-1.12,0-2.12-.03-2.99-.02-.87-.13-1.6-.33-2.2-.2-.6-.53-1.06-1-1.38-.47-.33-1.16-.52-2.06-.6v-.54c.76-.07,1.6-.18,2.52-.33s1.85-.33,2.77-.54c.92-.22,1.84-.46,2.74-.73.9-.27,1.72-.57,2.44-.9v42.9c.04,1.85.33,3.2.9,4.07.56.87,1.69,1.3,3.39,1.3v.54c-1.3-.07-2.61-.13-3.91-.16-1.3-.04-2.61-.05-3.91-.05Z"/>
      <path class="st1" d="M198.34,50.56c-3.01,0-5.63-.52-7.87-1.58-2.25-1.05-4.14-2.44-5.67-4.18-1.54-1.74-2.7-3.71-3.48-5.92-.78-2.21-1.18-4.47-1.19-6.79-.02-2.32.34-4.58,1.09-6.79.74-2.21,1.88-4.18,3.42-5.92,1.54-1.74,3.46-3.13,5.76-4.18,2.3-1.05,5-1.58,8.12-1.58,2.1,0,4.05.27,5.84.81,1.79.54,3.41,1.3,4.86,2.28,1.45.98,2.7,2.14,3.75,3.5,1.05,1.36,1.9,2.85,2.55,4.48-.43.07-1.1.19-2.01.35-.91.16-1.96.35-3.18.57-1.21.22-2.56.45-4.04.71-1.49.25-3.02.52-4.62.81,2.39.04,4.44.39,6.16,1.06s3.13,1.52,4.24,2.55c1.1,1.03,1.9,2.21,2.39,3.53.49,1.32.69,2.66.6,4.02-.09,1.36-.45,2.7-1.09,4.02-.63,1.32-1.53,2.49-2.69,3.5-1.63,1.45-3.51,2.6-5.65,3.45s-4.56,1.28-7.28,1.28ZM187.37,29.71c-.15,2.21-.07,4.5.22,6.87.29,2.37.87,4.54,1.74,6.52.87,1.97,2.04,3.6,3.53,4.89,1.48,1.29,3.37,1.95,5.65,1.98,2.61-.04,4.93-.46,6.98-1.28s3.85-1.91,5.4-3.29c1.77-1.59,2.9-3.46,3.37-5.59.47-2.14.24-4.16-.71-6.08-.58-1.16-1.3-2.12-2.17-2.88-.87-.76-1.84-1.37-2.9-1.82-1.07-.45-2.22-.77-3.45-.95-1.23-.18-2.48-.27-3.75-.27s-2.6.07-3.88.22c-1.29.15-2.54.32-3.75.52-1.21.2-2.35.41-3.42.62-1.07.22-2.02.4-2.85.54ZM187.37,29.11c1.27-.22,2.61-.45,4.04-.71,1.43-.25,2.91-.52,4.43-.81,2.35-.4,4.68-.8,6.98-1.22,2.3-.42,4.39-.79,6.27-1.11-.29-1.41-.7-2.78-1.22-4.1-.53-1.32-1.21-2.5-2.06-3.53-.85-1.03-1.88-1.85-3.09-2.47-1.21-.62-2.63-.92-4.26-.92-2.03,0-3.72.46-5.08,1.38s-2.46,2.11-3.31,3.56c-.85,1.45-1.48,3.05-1.9,4.81-.42,1.76-.68,3.47-.79,5.13Z"/>
      <path class="st1" d="M229.41,49.96c1.48,0,2.52-.32,3.09-.95.58-.63.94-1.6,1.09-2.91.07-.33.11-.68.11-1.06V10.05c0-.8-.04-1.51-.11-2.15-.07-.63-.24-1.18-.49-1.63-.25-.45-.62-.8-1.09-1.06-.47-.25-1.1-.38-1.9-.38v-.54c1.63.11,2.98.19,4.04.24,1.07.05,2.07.08,3.01.08,1.01,0,2.04-.03,3.1-.08,1.05-.05,2.37-.14,3.96-.24v.54c-.8,0-1.43.12-1.9.35-.47.24-.83.57-1.09,1s-.42.97-.49,1.6c-.07.63-.11,1.33-.11,2.09v14.06h21.88v-13.9c0-.8-.04-1.51-.11-2.15-.07-.63-.24-1.18-.49-1.63-.25-.45-.62-.8-1.09-1.06-.47-.25-1.1-.38-1.9-.38v-.54c1.67.07,3.1.14,4.32.19,1.21.05,2.42.08,3.61.08.9,0,1.85-.02,2.82-.05.98-.04,2.1-.11,3.37-.22v.54c-.8,0-1.43.12-1.9.35-.47.24-.83.57-1.09,1-.25.43-.42.97-.49,1.6-.07.63-.11,1.33-.11,2.09v34.43c0,.98.06,1.82.19,2.53.13.71.34,1.29.65,1.74.31.45.74.8,1.3,1.03s1.29.35,2.2.35v.54c-1.81-.07-3.29-.14-4.45-.19-1.16-.05-2.23-.08-3.2-.08-1.09,0-2.21.03-3.37.08-1.16.05-2.68.12-4.56.19v-.54c1.48,0,2.52-.32,3.1-.95.58-.63.94-1.6,1.09-2.91.07-.33.11-.68.11-1.06v-20.55h-21.88v19.82c0,.98.06,1.82.19,2.53s.34,1.29.65,1.74c.31.45.74.8,1.3,1.03.56.24,1.29.35,2.2.35v.54c-1.92-.07-3.47-.13-4.64-.16-1.18-.04-2.31-.05-3.39-.05-.98,0-2.04.02-3.18.05-1.14.04-2.6.09-4.37.16v-.54Z"/>
      <path class="st1" d="M295.98,50.56c-3,0-5.63-.52-7.87-1.58-2.25-1.05-4.14-2.44-5.67-4.18-1.54-1.74-2.7-3.71-3.47-5.92-.78-2.21-1.18-4.47-1.2-6.79s.34-4.58,1.09-6.79c.74-2.21,1.88-4.18,3.42-5.92,1.54-1.74,3.46-3.13,5.76-4.18s5-1.58,8.12-1.58c2.1,0,4.04.27,5.84.81,1.79.54,3.41,1.3,4.86,2.28,1.45.98,2.7,2.14,3.75,3.5s1.9,2.85,2.55,4.48c-.43.07-1.1.19-2.01.35s-1.96.35-3.18.57c-1.21.22-2.56.45-4.05.71s-3.02.52-4.62.81c2.39.04,4.44.39,6.16,1.06,1.72.67,3.13,1.52,4.24,2.55,1.1,1.03,1.9,2.21,2.39,3.53.49,1.32.69,2.66.6,4.02-.09,1.36-.45,2.7-1.09,4.02-.63,1.32-1.53,2.49-2.69,3.5-1.63,1.45-3.51,2.6-5.65,3.45-2.14.85-4.56,1.28-7.28,1.28ZM285.01,29.71c-.14,2.21-.07,4.5.22,6.87.29,2.37.87,4.54,1.74,6.52.87,1.97,2.04,3.6,3.53,4.89,1.48,1.29,3.37,1.95,5.65,1.98,2.61-.04,4.93-.46,6.98-1.28,2.04-.81,3.85-1.91,5.4-3.29,1.77-1.59,2.9-3.46,3.37-5.59.47-2.14.24-4.16-.71-6.08-.58-1.16-1.3-2.12-2.17-2.88-.87-.76-1.84-1.37-2.91-1.82-1.07-.45-2.22-.77-3.45-.95-1.23-.18-2.48-.27-3.75-.27s-2.6.07-3.88.22c-1.29.15-2.53.32-3.75.52s-2.35.41-3.42.62-2.02.4-2.85.54ZM285.01,29.11c1.27-.22,2.62-.45,4.05-.71,1.43-.25,2.91-.52,4.42-.81,2.35-.4,4.68-.8,6.98-1.22,2.3-.42,4.39-.79,6.27-1.11-.29-1.41-.7-2.78-1.22-4.1-.53-1.32-1.21-2.5-2.06-3.53-.85-1.03-1.88-1.85-3.1-2.47-1.21-.62-2.63-.92-4.26-.92-2.03,0-3.72.46-5.08,1.38-1.36.92-2.46,2.11-3.31,3.56-.85,1.45-1.49,3.05-1.9,4.81-.42,1.76-.68,3.47-.79,5.13Z"/>
      <path class="st1" d="M317.05,49.96c1.77,0,2.92-.46,3.45-1.38.52-.92.81-2.36.84-4.32v-22.92c0-1.12,0-2.12-.03-2.99s-.13-1.6-.33-2.2c-.2-.6-.54-1.06-1-1.38-.47-.33-1.16-.52-2.06-.6v-.54c.76-.07,1.6-.18,2.53-.33.92-.14,1.85-.33,2.77-.54.92-.22,1.84-.46,2.74-.73s1.72-.57,2.44-.9v15.04c.22-1.77.7-3.46,1.44-5.05.74-1.59,1.77-2.97,3.09-4.13,1.32-1.16,2.93-2.04,4.83-2.66,1.9-.62,4.14-.85,6.71-.71l-.11,7.06c-.83-.18-1.67-.32-2.5-.41-.83-.09-1.65-.14-2.44-.14-1.59,0-3.06.2-4.4.6-1.34.4-2.5,1-3.47,1.79-.98.8-1.75,1.81-2.31,3.04-.56,1.23-.84,2.68-.84,4.34v14.66c.04,1.85.33,3.2.9,4.07.56.87,1.69,1.3,3.39,1.3v.54c-1.81-.07-3.28-.14-4.4-.19-1.12-.05-2.17-.08-3.15-.08-1.05,0-2.14.03-3.26.08-1.12.05-2.62.12-4.51.19h-.33v-.54Z"/>
      <path class="st1" d="M346.42,49.96c.76,0,1.38-.17,1.85-.52.47-.34.84-.81,1.11-1.41s.45-1.29.54-2.09c.09-.8.15-1.66.19-2.61V9.4c-.04-.72-.1-1.37-.19-1.93-.09-.56-.26-1.03-.52-1.41-.25-.38-.6-.68-1.03-.9-.43-.22-1.01-.36-1.74-.43v-.54c1.59-.14,3.36-.43,5.3-.87,1.94-.43,3.65-.98,5.12-1.63l.05,25.14c.33-2.1.92-3.96,1.79-5.59.87-1.63,1.92-3,3.15-4.13s2.61-1.98,4.13-2.58,3.09-.9,4.72-.9c2.61,0,4.9.44,6.9,1.33,1.99.89,3.66,2.14,5,3.77,1.34,1.63,2.35,3.59,3.04,5.89.69,2.3,1.03,4.86,1.03,7.68s-.4,5.42-1.2,7.68c-.8,2.26-1.9,4.17-3.32,5.73-1.41,1.56-3.1,2.74-5.06,3.56-1.96.81-4.08,1.22-6.36,1.22-1.71.04-3.33-.27-4.87-.92-1.54-.65-2.93-1.53-4.16-2.63-1.23-1.1-2.27-2.41-3.1-3.91s-1.42-3.1-1.74-4.81v12.27h-10.64v-.54ZM357.12,32.1c-.04,1.16,0,2.52.14,4.07.13,1.56.52,3.11,1.17,4.67.51,1.3,1.18,2.52,2.01,3.64s1.8,2.09,2.88,2.91,2.28,1.45,3.57,1.9c1.29.45,2.64.66,4.05.62,1.67,0,3.08-.45,4.22-1.36,1.14-.9,2.07-2.14,2.78-3.72.71-1.57,1.21-3.44,1.52-5.59.31-2.15.46-4.46.46-6.92,0-1.96-.1-4-.3-6.14-.2-2.14-.62-4.09-1.25-5.86-.63-1.77-1.55-3.23-2.75-4.37-1.2-1.14-2.78-1.71-4.74-1.71-1.38,0-2.72.22-4.03.65s-2.52,1.09-3.65,1.96-2.12,1.94-2.99,3.2c-.87,1.27-1.54,2.73-2.01,4.4-.22.58-.39,1.21-.52,1.9s-.24,1.38-.33,2.06c-.09.69-.16,1.36-.19,2.01-.04.65-.05,1.21-.05,1.68Z"/>
    </g>
  </g>
</svg>