<?xml version="1.0" encoding="UTF-8"?>
<svg id="_레이어_1" xmlns="http://www.w3.org/2000/svg" version="1.1" viewBox="0 0 260.13 322.84">
  <!-- Generator: Adobe Illustrator 29.8.3, SVG Export Plug-In . SVG Version: 2.1.1 Build 3)  -->
  <defs>
    <style>
      .st0 {
        isolation: isolate;
      }

      .st1 {
        fill: #212121;
      }
    </style>
  </defs>
  <g class="st0">
    <g class="st0">
      <path class="st1" d="M25.72,184.03c0-3.37.56-6.47,1.68-9.31,1.12-2.84,2.71-5.28,4.75-7.3,2.04-2.03,4.5-3.61,7.36-4.75,2.86-1.14,6.01-1.71,9.45-1.71,2.93,0,5.77.41,8.52,1.22,2.75.81,5.36,2.09,7.82,3.83l-2.17,8.15-.54-.11c-.47-1.77-1.07-3.43-1.79-4.97-.72-1.54-1.61-2.87-2.66-3.99-1.05-1.12-2.28-2-3.69-2.63-1.41-.63-3.04-.95-4.89-.95-2.43,0-4.55.43-6.38,1.3-1.83.87-3.41,2.06-4.75,3.58-.58,1.92-.58,3.73,0,5.43.58,1.7,1.5,3.21,2.77,4.53,1.27,1.32,2.8,2.4,4.59,3.23,1.79.83,3.63,1.36,5.51,1.58,1.92.18,3.86.32,5.84.41,1.97.09,3.88.14,5.73.14,1.74,0,3.36-.04,4.86-.11,1.5-.07,2.81-.14,3.94-.22v.6c-1.74,0-2.89.43-3.45,1.3-.56.87-.86,2.25-.9,4.13v13.85c-1.48.25-2.77.59-3.86,1-1.09.42-2.08.85-2.99,1.3-.91.45-1.76.92-2.55,1.38-.8.47-1.64.9-2.52,1.28-.89.38-1.86.69-2.91.92-1.05.24-2.28.35-3.69.35-3.22,0-6.23-.55-9.01-1.66-2.79-1.1-5.23-2.68-7.33-4.72-2.1-2.04-3.75-4.52-4.94-7.41-1.19-2.9-1.79-6.12-1.79-9.67ZM37.56,167.42c-1.63,2.21-2.82,4.81-3.58,7.79s-1.14,6.13-1.14,9.42c0,2.82.36,5.58,1.09,8.25.72,2.68,1.79,5.06,3.2,7.14,1.41,2.08,3.16,3.75,5.24,5,2.08,1.25,4.5,1.87,7.25,1.87,1.56,0,3-.29,4.32-.87,1.32-.58,2.45-1.37,3.39-2.36.94-1,1.68-2.15,2.23-3.47s.81-2.71.81-4.15v-8.42c0-.98-.21-1.78-.62-2.42-.42-.63-1.04-1.18-1.87-1.63-.83-.45-1.9-.83-3.2-1.14-1.3-.31-2.88-.61-4.72-.9-1.12-.18-2.21-.48-3.26-.9-1.05-.42-2.05-.93-2.99-1.55-2.17-1.34-3.84-3.02-5-5.05-1.16-2.03-1.54-4.24-1.14-6.62Z"/>
      <path class="st1" d="M93.82,207.43c-3.01,0-5.63-.52-7.87-1.58-2.25-1.05-4.14-2.44-5.67-4.18-1.54-1.74-2.7-3.71-3.48-5.92-.78-2.21-1.18-4.47-1.19-6.79-.02-2.32.34-4.58,1.09-6.79.74-2.21,1.88-4.18,3.42-5.92,1.54-1.74,3.46-3.13,5.76-4.18,2.3-1.05,5-1.58,8.12-1.58,2.1,0,4.05.27,5.84.81,1.79.54,3.41,1.3,4.86,2.28,1.45.98,2.7,2.14,3.75,3.5,1.05,1.36,1.9,2.85,2.55,4.48-.43.07-1.1.19-2.01.35-.91.16-1.96.35-3.18.57-1.21.22-2.56.45-4.05.71-1.48.25-3.02.52-4.62.81,2.39.04,4.44.39,6.16,1.06,1.72.67,3.13,1.52,4.24,2.55,1.1,1.03,1.9,2.21,2.39,3.53.49,1.32.69,2.66.6,4.02-.09,1.36-.45,2.7-1.09,4.02-.63,1.32-1.53,2.49-2.69,3.5-1.63,1.45-3.51,2.6-5.65,3.45-2.14.85-4.56,1.28-7.28,1.28ZM82.85,186.58c-.15,2.21-.07,4.5.22,6.87.29,2.37.87,4.54,1.74,6.52.87,1.97,2.04,3.6,3.53,4.89,1.48,1.29,3.37,1.95,5.65,1.98,2.61-.04,4.93-.46,6.98-1.28,2.04-.81,3.85-1.91,5.4-3.29,1.77-1.59,2.9-3.46,3.37-5.59.47-2.14.24-4.16-.71-6.08-.58-1.16-1.3-2.12-2.17-2.88-.87-.76-1.84-1.37-2.9-1.82-1.07-.45-2.22-.77-3.45-.95-1.23-.18-2.48-.27-3.75-.27s-2.6.07-3.88.22c-1.29.15-2.53.32-3.75.52-1.21.2-2.35.41-3.42.62-1.07.22-2.02.4-2.85.54ZM82.85,185.99c1.27-.22,2.61-.45,4.05-.71,1.43-.25,2.91-.52,4.43-.81,2.35-.4,4.68-.8,6.98-1.22,2.3-.42,4.39-.79,6.27-1.11-.29-1.41-.7-2.78-1.22-4.1-.53-1.32-1.21-2.5-2.06-3.53-.85-1.03-1.88-1.85-3.1-2.47-1.21-.62-2.63-.92-4.26-.92-2.03,0-3.72.46-5.08,1.38-1.36.92-2.46,2.11-3.31,3.56-.85,1.45-1.48,3.05-1.9,4.81-.42,1.76-.68,3.47-.79,5.13Z"/>
      <path class="st1" d="M114.89,206.84c1.77,0,2.92-.46,3.45-1.38.52-.92.81-2.36.84-4.32v-22.92c0-1.12,0-2.12-.03-2.99-.02-.87-.13-1.6-.33-2.2-.2-.6-.53-1.06-1-1.38-.47-.33-1.16-.52-2.06-.6v-.54c.76-.07,1.6-.18,2.52-.33.92-.14,1.85-.33,2.77-.54.92-.22,1.84-.46,2.74-.73.9-.27,1.72-.57,2.44-.9v15.69c.33-1.74.8-3.39,1.41-4.97.62-1.57,1.39-2.96,2.33-4.15.94-1.2,2.07-2.16,3.39-2.91,1.32-.74,2.85-1.13,4.59-1.17,2.79-.11,5.29.25,7.49,1.09,2.21.83,4.08,2.06,5.62,3.67,1.54,1.61,2.72,3.57,3.56,5.86.83,2.3,1.29,4.88,1.36,7.74v12.33c.04,1.92.32,3.34.84,4.26.52.92,1.67,1.38,3.45,1.38v.54c-1.27-.07-2.52-.13-3.77-.16-1.25-.04-2.45-.05-3.61-.05s-2.24,0-3.23.03c-1,.02-1.86.05-2.58.08-.87.04-1.65.07-2.34.11v-.54c.98,0,1.75-.11,2.31-.33.56-.22.99-.55,1.28-1,.29-.45.48-1.04.57-1.76.09-.72.14-1.58.14-2.55v-11.73c0-2.42-.16-4.76-.49-7-.33-2.24-.9-4.23-1.74-5.95-.83-1.72-1.96-3.07-3.39-4.05s-3.27-1.45-5.51-1.41c-1.99.07-3.71.66-5.16,1.77-1.45,1.1-2.64,2.52-3.58,4.26-.94,1.74-1.66,3.67-2.15,5.81-.49,2.14-.75,4.25-.79,6.35v12.22c.04,1.85.33,3.2.9,4.07.56.87,1.69,1.3,3.39,1.3v.54c-1.81-.07-3.28-.14-4.4-.19-1.12-.05-2.17-.08-3.15-.08-1.05,0-2.14.03-3.26.08-1.12.05-2.62.12-4.51.19h-.33v-.54Z"/>
      <path class="st1" d="M174.02,161.5h.59v9.01h3.69v.54h-3.69v29.4c0,1.21.11,2.29.33,3.23s.58,1.69,1.09,2.25,1.27.84,2.28.84v.6c-1.88,0-3.49-.14-4.82-.43-1.33-.29-2.43-.77-3.29-1.44-.86-.67-1.5-1.58-1.91-2.74-.41-1.16-.62-2.61-.62-4.34v-20.2c0-1.09,0-2.05-.03-2.91-.02-.85-.13-1.57-.33-2.17-.2-.6-.54-1.08-1.03-1.44-.49-.36-1.19-.58-2.09-.65v-.54c6.23,0,9.51-3,9.83-9.01Z"/>
      <path class="st1" d="M190.09,207.16c-1.3,0-2.61.02-3.91.05-1.3.04-2.61.09-3.91.16v-.54c1.77,0,2.92-.46,3.45-1.38.52-.92.8-2.36.84-4.32v-32.36c0-1.12,0-2.12-.03-2.99-.02-.87-.13-1.6-.33-2.2s-.53-1.06-1-1.38c-.47-.33-1.16-.52-2.06-.6v-.54c.76-.07,1.6-.18,2.52-.33.92-.14,1.85-.33,2.77-.54.92-.22,1.84-.46,2.74-.73.9-.27,1.72-.57,2.44-.9v42.9c.04,1.85.33,3.2.9,4.07.56.87,1.69,1.3,3.39,1.3v.54c-1.3-.07-2.61-.13-3.91-.16-1.3-.04-2.61-.05-3.91-.05Z"/>
      <path class="st1" d="M220.06,207.43c-3.01,0-5.63-.52-7.87-1.58-2.25-1.05-4.14-2.44-5.67-4.18-1.54-1.74-2.7-3.71-3.48-5.92-.78-2.21-1.18-4.47-1.19-6.79s.34-4.58,1.09-6.79c.74-2.21,1.88-4.18,3.42-5.92,1.54-1.74,3.46-3.13,5.76-4.18s5-1.58,8.12-1.58c2.1,0,4.05.27,5.84.81,1.79.54,3.41,1.3,4.86,2.28s2.7,2.14,3.75,3.5,1.9,2.85,2.55,4.48c-.43.07-1.1.19-2.01.35s-1.96.35-3.18.57c-1.21.22-2.56.45-4.04.71s-3.02.52-4.62.81c2.39.04,4.44.39,6.16,1.06,1.72.67,3.13,1.52,4.24,2.55,1.1,1.03,1.9,2.21,2.39,3.53.49,1.32.69,2.66.6,4.02-.09,1.36-.45,2.7-1.09,4.02-.63,1.32-1.53,2.49-2.69,3.5-1.63,1.45-3.51,2.6-5.65,3.45-2.14.85-4.56,1.28-7.28,1.28ZM209.09,186.58c-.14,2.21-.07,4.5.22,6.87s.87,4.54,1.74,6.52c.87,1.97,2.04,3.6,3.53,4.89,1.48,1.29,3.37,1.95,5.65,1.98,2.61-.04,4.93-.46,6.98-1.28,2.04-.81,3.85-1.91,5.4-3.29,1.77-1.59,2.9-3.46,3.37-5.59.47-2.14.23-4.16-.71-6.08-.58-1.16-1.3-2.12-2.17-2.88-.87-.76-1.84-1.37-2.9-1.82-1.07-.45-2.22-.77-3.45-.95-1.23-.18-2.48-.27-3.75-.27s-2.6.07-3.88.22c-1.29.15-2.53.32-3.75.52s-2.35.41-3.42.62-2.02.4-2.85.54ZM209.09,185.99c1.27-.22,2.62-.45,4.04-.71,1.43-.25,2.91-.52,4.43-.81,2.35-.4,4.68-.8,6.98-1.22,2.3-.42,4.39-.79,6.27-1.11-.29-1.41-.7-2.78-1.22-4.1-.53-1.32-1.21-2.5-2.06-3.53-.85-1.03-1.88-1.85-3.1-2.47-1.21-.62-2.63-.92-4.26-.92-2.03,0-3.72.46-5.08,1.38s-2.46,2.11-3.31,3.56c-.85,1.45-1.48,3.05-1.9,4.81s-.68,3.47-.79,5.13Z"/>
    </g>
    <g class="st0">
      <path class="st1" d="M52.46,272.01c1.48,0,2.52-.32,3.09-.95.58-.63.94-1.6,1.09-2.91.07-.33.11-.68.11-1.06v-35c0-.8-.04-1.51-.11-2.15-.07-.63-.24-1.18-.49-1.63-.25-.45-.62-.8-1.09-1.06-.47-.25-1.1-.38-1.9-.38v-.54c1.63.11,2.98.19,4.04.24,1.07.05,2.07.08,3.01.08,1.01,0,2.04-.03,3.1-.08,1.05-.05,2.37-.14,3.96-.24v.54c-.8,0-1.43.12-1.9.35-.47.24-.83.57-1.09,1s-.42.97-.49,1.6c-.07.63-.11,1.33-.11,2.09v14.06h21.88v-13.9c0-.8-.04-1.51-.11-2.15-.07-.63-.24-1.18-.49-1.63-.25-.45-.62-.8-1.09-1.06-.47-.25-1.1-.38-1.9-.38v-.54c1.67.07,3.1.14,4.32.19,1.21.05,2.42.08,3.61.08.9,0,1.85-.02,2.82-.05.98-.04,2.1-.11,3.37-.22v.54c-.8,0-1.43.12-1.9.35-.47.24-.83.57-1.09,1-.25.43-.42.97-.49,1.6-.07.63-.11,1.33-.11,2.09v34.43c0,.98.06,1.82.19,2.53.13.71.34,1.29.65,1.74.31.45.74.8,1.3,1.03s1.29.35,2.2.35v.54c-1.81-.07-3.29-.14-4.45-.19-1.16-.05-2.23-.08-3.2-.08-1.09,0-2.21.03-3.37.08-1.16.05-2.68.12-4.56.19v-.54c1.48,0,2.52-.32,3.1-.95.58-.63.94-1.6,1.09-2.91.07-.33.11-.68.11-1.06v-20.55h-21.88v19.82c0,.98.06,1.82.19,2.53s.34,1.29.65,1.74c.31.45.74.8,1.3,1.03.56.24,1.29.35,2.2.35v.54c-1.92-.07-3.47-.13-4.64-.16-1.18-.04-2.31-.05-3.39-.05-.98,0-2.04.02-3.18.05-1.14.04-2.6.09-4.37.16v-.54Z"/>
      <path class="st1" d="M119.04,272.6c-3.01,0-5.63-.52-7.87-1.58-2.25-1.05-4.14-2.44-5.67-4.18-1.54-1.74-2.7-3.71-3.48-5.92-.78-2.21-1.18-4.47-1.19-6.79-.02-2.32.34-4.58,1.09-6.79.74-2.21,1.88-4.18,3.42-5.92,1.54-1.74,3.46-3.13,5.76-4.18,2.3-1.05,5-1.58,8.12-1.58,2.1,0,4.05.27,5.84.81,1.79.54,3.41,1.3,4.86,2.28,1.45.98,2.7,2.14,3.75,3.5,1.05,1.36,1.9,2.85,2.55,4.48-.43.07-1.1.19-2.01.35-.91.16-1.96.35-3.18.57-1.21.22-2.56.45-4.04.71-1.49.25-3.02.52-4.62.81,2.39.04,4.44.39,6.16,1.06s3.13,1.52,4.24,2.55c1.1,1.03,1.9,2.21,2.39,3.53.49,1.32.69,2.66.6,4.02-.09,1.36-.45,2.7-1.09,4.02-.63,1.32-1.53,2.49-2.69,3.5-1.63,1.45-3.51,2.6-5.65,3.45s-4.56,1.28-7.28,1.28ZM108.07,251.75c-.15,2.21-.07,4.5.22,6.87.29,2.37.87,4.54,1.74,6.52.87,1.97,2.04,3.6,3.53,4.89,1.48,1.29,3.37,1.95,5.65,1.98,2.61-.04,4.93-.46,6.98-1.28s3.85-1.91,5.4-3.29c1.77-1.59,2.9-3.46,3.37-5.59.47-2.14.24-4.16-.71-6.08-.58-1.16-1.3-2.12-2.17-2.88-.87-.76-1.84-1.37-2.9-1.82-1.07-.45-2.22-.77-3.45-.95-1.23-.18-2.48-.27-3.75-.27s-2.6.07-3.88.22c-1.29.15-2.54.32-3.75.52-1.21.2-2.35.41-3.42.62-1.07.22-2.02.4-2.85.54ZM108.07,251.16c1.27-.22,2.61-.45,4.04-.71,1.43-.25,2.91-.52,4.43-.81,2.35-.4,4.68-.8,6.98-1.22,2.3-.42,4.39-.79,6.27-1.11-.29-1.41-.7-2.78-1.22-4.1-.53-1.32-1.21-2.5-2.06-3.53-.85-1.03-1.88-1.85-3.09-2.47-1.21-.62-2.63-.92-4.26-.92-2.03,0-3.72.46-5.08,1.38s-2.46,2.11-3.31,3.56c-.85,1.45-1.48,3.05-1.9,4.81-.42,1.76-.68,3.47-.79,5.13Z"/>
      <path class="st1" d="M140.1,272.01c1.77,0,2.92-.46,3.45-1.38.52-.92.81-2.36.84-4.32v-22.92c0-1.12,0-2.12-.03-2.99s-.13-1.6-.33-2.2c-.2-.6-.54-1.06-1-1.38-.47-.33-1.16-.52-2.06-.6v-.54c.76-.07,1.6-.18,2.53-.33.92-.14,1.85-.33,2.77-.54.92-.22,1.84-.46,2.74-.73s1.72-.57,2.44-.9v15.04c.22-1.77.7-3.46,1.44-5.05.74-1.59,1.77-2.97,3.09-4.13,1.32-1.16,2.93-2.04,4.83-2.66,1.9-.62,4.14-.85,6.71-.71l-.11,7.06c-.83-.18-1.67-.32-2.5-.41-.83-.09-1.65-.14-2.44-.14-1.59,0-3.06.2-4.4.6-1.34.4-2.5,1-3.47,1.79-.98.8-1.75,1.81-2.31,3.04-.56,1.23-.84,2.68-.84,4.34v14.66c.04,1.85.33,3.2.9,4.07.56.87,1.69,1.3,3.39,1.3v.54c-1.81-.07-3.28-.14-4.4-.19-1.12-.05-2.17-.08-3.15-.08-1.05,0-2.14.03-3.26.08-1.12.05-2.62.12-4.51.19h-.33v-.54Z"/>
      <path class="st1" d="M169.48,272.01c.76,0,1.38-.17,1.85-.52s.84-.81,1.11-1.41.45-1.29.54-2.09c.09-.8.15-1.66.19-2.61v-33.94c-.04-.72-.1-1.37-.19-1.93-.09-.56-.26-1.03-.52-1.41-.25-.38-.6-.68-1.03-.9-.43-.22-1.01-.36-1.74-.43v-.54c1.59-.14,3.36-.43,5.3-.87s3.65-.98,5.12-1.63l.05,25.14c.33-2.1.92-3.96,1.79-5.59.87-1.63,1.92-3,3.15-4.13,1.23-1.12,2.61-1.98,4.13-2.58,1.52-.6,3.09-.9,4.72-.9,2.61,0,4.91.44,6.9,1.33,1.99.89,3.66,2.14,5,3.77,1.34,1.63,2.35,3.59,3.04,5.89.69,2.3,1.03,4.86,1.03,7.68s-.4,5.42-1.2,7.68c-.8,2.26-1.9,4.17-3.32,5.73-1.42,1.56-3.1,2.74-5.06,3.56s-4.08,1.22-6.36,1.22c-1.71.04-3.33-.27-4.87-.92-1.54-.65-2.93-1.53-4.16-2.63-1.23-1.1-2.27-2.41-3.1-3.91s-1.41-3.1-1.74-4.81v12.27h-10.64v-.54ZM180.18,254.14c-.04,1.16,0,2.52.14,4.07.13,1.56.52,3.11,1.17,4.67.51,1.3,1.18,2.52,2.01,3.64.83,1.12,1.8,2.09,2.88,2.91,1.09.81,2.28,1.45,3.57,1.9,1.29.45,2.64.66,4.06.62,1.67,0,3.07-.45,4.22-1.36,1.14-.9,2.07-2.14,2.78-3.72.71-1.57,1.22-3.44,1.52-5.59.31-2.15.46-4.46.46-6.92,0-1.96-.1-4-.3-6.14s-.62-4.09-1.25-5.86-1.55-3.23-2.75-4.37c-1.2-1.14-2.78-1.71-4.74-1.71-1.38,0-2.72.22-4.03.65s-2.52,1.09-3.65,1.96-2.12,1.94-2.99,3.2c-.87,1.27-1.54,2.73-2.01,4.4-.22.58-.39,1.21-.52,1.9-.13.69-.24,1.38-.33,2.06-.09.69-.15,1.36-.19,2.01s-.05,1.21-.05,1.68Z"/>
    </g>
  </g>
  <g class="st0">
    <g class="st0">
      <path class="st1" d="M41.32,298.22h5.13v.65h-4.36v3.58h3.69v.65h-3.69v4.41h-.77v-9.3Z"/>
      <path class="st1" d="M47.31,304.13c0-2.27,1.43-3.58,3.07-3.58s3.07,1.31,3.07,3.58-1.43,3.56-3.07,3.56-3.07-1.3-3.07-3.56ZM52.69,304.13c0-1.73-.98-2.93-2.31-2.93s-2.3,1.2-2.3,2.93.97,2.92,2.3,2.92,2.31-1.19,2.31-2.92Z"/>
      <path class="st1" d="M55.45,300.72h.61l.09,1.26h.03c.46-.85,1.14-1.44,1.93-1.44.27,0,.47.04.69.15l-.15.66c-.23-.09-.36-.12-.62-.12-.6,0-1.33.45-1.82,1.71v4.57h-.74v-6.8Z"/>
      <path class="st1" d="M61.94,310.44l.17-.62c.14.05.36.1.55.1.82,0,1.37-.74,1.7-1.72l.18-.57-2.78-6.9h.8l1.58,4.16c.22.59.47,1.3.71,1.91h.06c.2-.61.42-1.33.61-1.91l1.39-4.16h.75l-2.65,7.59c-.41,1.17-1.1,2.27-2.35,2.27-.27,0-.54-.05-.73-.14Z"/>
      <path class="st1" d="M68.55,304.13c0-2.27,1.43-3.58,3.07-3.58s3.07,1.31,3.07,3.58-1.43,3.56-3.07,3.56-3.07-1.3-3.07-3.56ZM73.94,304.13c0-1.73-.98-2.93-2.31-2.93s-2.3,1.2-2.3,2.93.97,2.92,2.3,2.92,2.31-1.19,2.31-2.92Z"/>
      <path class="st1" d="M76.59,305.07v-4.35h.74v4.26c0,1.39.43,2.04,1.48,2.04.79,0,1.35-.41,2.12-1.33v-4.97h.74v6.8h-.62l-.06-1.12h-.04c-.66.77-1.35,1.29-2.3,1.29-1.42,0-2.05-.87-2.05-2.62Z"/>
      <path class="st1" d="M84.22,300.72h.61l.09,1.26h.03c.46-.85,1.13-1.44,1.93-1.44.27,0,.47.04.69.15l-.15.66c-.23-.09-.36-.12-.62-.12-.6,0-1.33.45-1.82,1.71v4.57h-.74v-6.8Z"/>
      <path class="st1" d="M91.71,298.22h.77v4.03h4.83v-4.03h.75v9.3h-.75v-4.61h-4.83v4.61h-.77v-9.3Z"/>
      <path class="st1" d="M100.13,304.13c0-2.21,1.44-3.58,2.99-3.58,1.65,0,2.63,1.17,2.63,3.16,0,.19-.01.37-.04.54h-4.82c.04,1.66,1.02,2.82,2.49,2.82.73,0,1.3-.23,1.81-.59l.28.55c-.55.34-1.19.66-2.17.66-1.75,0-3.16-1.33-3.16-3.56ZM105.07,303.65c0-1.65-.75-2.47-1.94-2.47-1.11,0-2.1.92-2.25,2.47h4.18Z"/>
      <path class="st1" d="M106.87,305.81c0-1.51,1.34-2.22,4.34-2.56.03-1.01-.27-2.05-1.56-2.05-.89,0-1.67.42-2.14.78l-.33-.54c.52-.36,1.47-.89,2.58-.89,1.62,0,2.19,1.16,2.19,2.67v4.31h-.62l-.08-.87h-.03c-.69.56-1.5,1.03-2.37,1.03-1.1,0-1.98-.61-1.98-1.88ZM111.21,306v-2.21c-2.68.31-3.6.93-3.6,1.98,0,.93.64,1.29,1.39,1.29s1.4-.36,2.21-1.06Z"/>
      <path class="st1" d="M114.32,306.51v-9.13h.74v9.21c0,.32.13.46.31.46.05,0,.1,0,.24-.03l.12.59c-.13.04-.25.08-.5.08-.61,0-.91-.38-.91-1.17Z"/>
      <path class="st1" d="M117.89,305.58v-4.23h-1.06v-.56l1.08-.06.09-1.96h.62v1.96h1.95v.62h-1.95v4.29c0,.85.23,1.42,1.13,1.42.26,0,.59-.09.83-.19l.18.57c-.4.14-.83.25-1.13.25-1.34,0-1.75-.84-1.75-2.11Z"/>
      <path class="st1" d="M122.22,297.38h.74v4.39c.68-.69,1.38-1.22,2.31-1.22,1.42,0,2.07.88,2.07,2.63v4.35h-.74v-4.25c0-1.42-.45-2.07-1.49-2.07-.79,0-1.35.41-2.14,1.22v5.09h-.74v-10.14Z"/>
      <path class="st1" d="M129.14,309.28c.66-.34,1.11-.93,1.12-1.71-.05.01-.1.01-.15.01-.36,0-.66-.23-.66-.65s.33-.64.68-.64c.46,0,.77.42.77,1.1,0,1.06-.62,1.91-1.53,2.37l-.22-.48Z"/>
      <path class="st1" d="M135.83,298.22h5.13v.65h-4.36v3.58h3.69v.65h-3.69v4.41h-.77v-9.3Z"/>
      <path class="st1" d="M141.82,304.13c0-2.27,1.43-3.58,3.07-3.58s3.07,1.31,3.07,3.58-1.43,3.56-3.07,3.56-3.07-1.3-3.07-3.56ZM147.2,304.13c0-1.73-.98-2.93-2.31-2.93s-2.3,1.2-2.3,2.93.97,2.92,2.3,2.92,2.31-1.19,2.31-2.92Z"/>
      <path class="st1" d="M149.96,300.72h.61l.09,1.26h.03c.46-.85,1.14-1.44,1.93-1.44.27,0,.47.04.69.15l-.15.66c-.23-.09-.36-.12-.62-.12-.6,0-1.33.45-1.82,1.71v4.57h-.74v-6.8Z"/>
      <path class="st1" d="M156.45,310.44l.17-.62c.14.05.36.1.55.1.82,0,1.37-.74,1.7-1.72l.18-.57-2.78-6.9h.8l1.58,4.16c.22.59.47,1.3.71,1.91h.06c.2-.61.42-1.33.61-1.91l1.39-4.16h.75l-2.65,7.59c-.41,1.17-1.1,2.27-2.35,2.27-.27,0-.54-.05-.73-.14Z"/>
      <path class="st1" d="M163.06,304.13c0-2.27,1.43-3.58,3.07-3.58s3.07,1.31,3.07,3.58-1.43,3.56-3.07,3.56-3.07-1.3-3.07-3.56ZM168.45,304.13c0-1.73-.98-2.93-2.31-2.93s-2.3,1.2-2.3,2.93.97,2.92,2.3,2.92,2.31-1.19,2.31-2.92Z"/>
      <path class="st1" d="M171.1,305.07v-4.35h.74v4.26c0,1.39.43,2.04,1.48,2.04.79,0,1.35-.41,2.12-1.33v-4.97h.74v6.8h-.62l-.06-1.12h-.04c-.66.77-1.35,1.29-2.3,1.29-1.42,0-2.05-.87-2.05-2.62Z"/>
      <path class="st1" d="M178.73,300.72h.61l.09,1.26h.03c.46-.85,1.13-1.44,1.93-1.44.27,0,.47.04.69.15l-.15.66c-.23-.09-.36-.12-.62-.12-.6,0-1.33.45-1.82,1.71v4.57h-.74v-6.8Z"/>
      <path class="st1" d="M186.22,298.22h2.19c2.86,0,4.26,1.77,4.26,4.62s-1.4,4.68-4.25,4.68h-2.21v-9.3ZM188.34,306.87c2.45,0,3.53-1.62,3.53-4.03s-1.08-3.98-3.53-3.98h-1.35v8.01h1.35Z"/>
      <path class="st1" d="M194.72,300.72h.61l.09,1.26h.03c.46-.85,1.13-1.44,1.93-1.44.27,0,.47.04.69.15l-.15.66c-.23-.09-.36-.12-.62-.12-.6,0-1.33.45-1.82,1.71v4.57h-.74v-6.8Z"/>
      <path class="st1" d="M198.6,304.13c0-2.21,1.44-3.58,2.99-3.58,1.65,0,2.63,1.17,2.63,3.16,0,.19-.01.37-.04.54h-4.82c.04,1.66,1.02,2.82,2.49,2.82.73,0,1.3-.23,1.81-.59l.28.55c-.55.34-1.19.66-2.17.66-1.75,0-3.16-1.33-3.16-3.56ZM203.54,303.65c0-1.65-.75-2.47-1.94-2.47-1.11,0-2.1.92-2.25,2.47h4.18Z"/>
      <path class="st1" d="M205.34,305.81c0-1.51,1.34-2.22,4.34-2.56.03-1.01-.27-2.05-1.56-2.05-.89,0-1.67.42-2.14.78l-.33-.54c.52-.36,1.47-.89,2.58-.89,1.62,0,2.19,1.16,2.19,2.67v4.31h-.62l-.08-.87h-.03c-.69.56-1.5,1.03-2.37,1.03-1.1,0-1.98-.61-1.98-1.88ZM209.67,306v-2.21c-2.68.31-3.6.93-3.6,1.98,0,.93.64,1.29,1.39,1.29s1.4-.36,2.21-1.06Z"/>
      <path class="st1" d="M212.79,300.72h.61l.09,1.03h.03c.61-.68,1.38-1.21,2.14-1.21,1.08,0,1.63.55,1.88,1.38.76-.83,1.5-1.38,2.3-1.38,1.37,0,2.04.88,2.04,2.63v4.35h-.74v-4.25c0-1.42-.47-2.07-1.47-2.07-.61,0-1.24.41-1.96,1.22v5.09h-.74v-4.25c0-1.42-.46-2.07-1.47-2.07-.6,0-1.25.41-1.96,1.22v5.09h-.74v-6.8Z"/>
    </g>
  </g>
  <g>
    <path class="st1" d="M187.81,83.98c-2.45-4.73-6.51-8.42-8.65-13.49-5.27-12.49-.31-25.63-11.87-36.32-3.58-3.31-7-3.66-10.4-5.88-2.39-1.56-4.26-4.5-7.25-6.43-18.02-11.66-43.28-6.67-58.9,6.77-31.43,27.03-21.68,74.78,8.48,98.34,5.09-6.48,9.48-14.53,10.74-22.78,1.04-6.77,1.24-15.37-.47-22-.32-1.24-.99-4.05-2.13-4.7,1.81,6.6,1.92,12.77,1.95,19.53-1.47.1-1.68-1-2.37-1.86-3.68-4.57-8.16-11.14-9.06-16.99-1.19-7.78.05-15.8,1.02-23.48,5.87,4.58,11.51,9.84,15.08,16.5.6,1.13,2.19,4.01,3.15,7.27,1.01,3.44.76,10.83,0,14.33-.24,1.1-1.38,2.28,0,2.27,3.32-10.63,7.95-18.41,16.63-25.38,9-7.23,18.26-9.41,23.22-21.07l3.13-10.21c1.97,3.98,4.48,7.25,5.56,11.7,1.75,7.17-1.27,13.3-.29,20.48.74,5.37,7.67,11.71,6.32,16.2-.8,2.68-5.22,2.8-5.68,4.13-.63,1.84,1.56,3.44,1.17,4.98-.45,1.76-3.84,2.37-3.83,4.04,0,.42,2.54,1.05,2.55,1.96,0,.72-3.6,3.94-4.02,5.07-.93,2.49,1.97,6.79-1.74,9.95-7.47,6.36-21.41-8.62-26.28,6.93-1.22,3.91-2.33,17.64,1.12,20.11,2.22,1.59,14.08.35,17.33-.36,24.78-5.42,48.7-34.11,35.49-59.62h0Z"/>
    <path class="st1" d="M130.51,93.12c1.99-.1.45.7-.12,1.18-2.58,2.19-7.25,6.95-9.32,9.57-.45.57-2.48,3.12-1.97,3.56,12.86-.36,23.34-12.9,26.04-24.74-22.85,3.48-35.65,20.54-30.96,43.66.94,4.63,2.96,10.55,7.2,12.99l-3.91-11.07c-4.61-13.67.53-28.08,13.03-35.15h0Z"/>
  </g>
</svg>